<svg width="409" height="80" viewBox="0 0 409 80" fill="none" xmlns="http://www.w3.org/2000/svg">
    <g filter="url(#filter0_d_2_7)">
        <path
            d="M4.40909 13.3523V1.18182H61.75V13.3523H40.375V71H25.7841V13.3523H4.40909ZM71.1932 71V1.18182H118.239V13.3523H85.9545V29.9886H115.818V42.1591H85.9545V58.8295H118.375V71H71.1932ZM129.974 71V1.18182H144.736V31.9659H145.656L170.781 1.18182H188.474L162.565 32.4432L188.781 71H171.122L151.997 42.2955L144.736 51.1591V71H129.974ZM233.474 21.2614C233.202 18.5114 232.031 16.375 229.963 14.8523C227.895 13.3295 225.088 12.5682 221.543 12.5682C219.134 12.5682 217.099 12.9091 215.44 13.5909C213.781 14.25 212.509 15.1705 211.622 16.3523C210.759 17.5341 210.327 18.875 210.327 20.375C210.281 21.625 210.543 22.7159 211.111 23.6477C211.702 24.5795 212.509 25.3864 213.531 26.0682C214.554 26.7273 215.736 27.3068 217.077 27.8068C218.418 28.2841 219.849 28.6932 221.372 29.0341L227.645 30.5341C230.69 31.2159 233.486 32.125 236.031 33.2614C238.577 34.3977 240.781 35.7955 242.645 37.4545C244.509 39.1136 245.952 41.0682 246.974 43.3182C248.02 45.5682 248.554 48.1477 248.577 51.0568C248.554 55.3295 247.463 59.0341 245.304 62.1705C243.168 65.2841 240.077 67.7045 236.031 69.4318C232.009 71.1364 227.156 71.9886 221.474 71.9886C215.838 71.9886 210.929 71.125 206.747 69.3977C202.588 67.6705 199.338 65.1136 196.997 61.7273C194.679 58.3182 193.463 54.1023 193.349 49.0795H207.634C207.793 51.4205 208.463 53.375 209.645 54.9432C210.849 56.4886 212.452 57.6591 214.452 58.4545C216.474 59.2273 218.759 59.6136 221.304 59.6136C223.804 59.6136 225.974 59.25 227.815 58.5227C229.679 57.7955 231.122 56.7841 232.145 55.4886C233.168 54.1932 233.679 52.7045 233.679 51.0227C233.679 49.4545 233.213 48.1364 232.281 47.0682C231.372 46 230.031 45.0909 228.259 44.3409C226.509 43.5909 224.361 42.9091 221.815 42.2955L214.213 40.3864C208.327 38.9545 203.679 36.7159 200.27 33.6705C196.861 30.625 195.168 26.5227 195.19 21.3636C195.168 17.1364 196.293 13.4432 198.565 10.2841C200.861 7.125 204.009 4.65909 208.009 2.88636C212.009 1.11363 216.554 0.22727 221.645 0.22727C226.827 0.22727 231.349 1.11363 235.213 2.88636C239.099 4.65909 242.122 7.125 244.281 10.2841C246.44 13.4432 247.554 17.1023 247.622 21.2614H233.474ZM268.946 71H253.128L277.23 1.18182H296.253L320.321 71H304.503L287.014 17.1364H286.469L268.946 71ZM267.957 43.5568H305.321V55.0795H267.957V43.5568ZM328.724 1.18182H346.929L366.156 48.0909H366.974L386.202 1.18182H404.406V71H390.088V25.5568H389.509L371.44 70.6591H361.69L343.622 25.3864H343.043V71H328.724V1.18182Z"
            fill="#FFB200" />
        <path
            d="M4.40909 13.3523H3.40909V14.3523H4.40909V13.3523ZM4.40909 1.18182V0.181816H3.40909V1.18182H4.40909ZM61.75 1.18182H62.75V0.181816H61.75V1.18182ZM61.75 13.3523V14.3523H62.75V13.3523H61.75ZM40.375 13.3523V12.3523H39.375V13.3523H40.375ZM40.375 71V72H41.375V71H40.375ZM25.7841 71H24.7841V72H25.7841V71ZM25.7841 13.3523H26.7841V12.3523H25.7841V13.3523ZM5.40909 13.3523V1.18182H3.40909V13.3523H5.40909ZM4.40909 2.18182H61.75V0.181816H4.40909V2.18182ZM60.75 1.18182V13.3523H62.75V1.18182H60.75ZM61.75 12.3523H40.375V14.3523H61.75V12.3523ZM39.375 13.3523V71H41.375V13.3523H39.375ZM40.375 70H25.7841V72H40.375V70ZM26.7841 71V13.3523H24.7841V71H26.7841ZM25.7841 12.3523H4.40909V14.3523H25.7841V12.3523ZM71.1932 71H70.1932V72H71.1932V71ZM71.1932 1.18182V0.181816H70.1932V1.18182H71.1932ZM118.239 1.18182H119.239V0.181816H118.239V1.18182ZM118.239 13.3523V14.3523H119.239V13.3523H118.239ZM85.9545 13.3523V12.3523H84.9545V13.3523H85.9545ZM85.9545 29.9886H84.9545V30.9886H85.9545V29.9886ZM115.818 29.9886H116.818V28.9886H115.818V29.9886ZM115.818 42.1591V43.1591H116.818V42.1591H115.818ZM85.9545 42.1591V41.1591H84.9545V42.1591H85.9545ZM85.9545 58.8295H84.9545V59.8295H85.9545V58.8295ZM118.375 58.8295H119.375V57.8295H118.375V58.8295ZM118.375 71V72H119.375V71H118.375ZM72.1932 71V1.18182H70.1932V71H72.1932ZM71.1932 2.18182H118.239V0.181816H71.1932V2.18182ZM117.239 1.18182V13.3523H119.239V1.18182H117.239ZM118.239 12.3523H85.9545V14.3523H118.239V12.3523ZM84.9545 13.3523V29.9886H86.9545V13.3523H84.9545ZM85.9545 30.9886H115.818V28.9886H85.9545V30.9886ZM114.818 29.9886V42.1591H116.818V29.9886H114.818ZM115.818 41.1591H85.9545V43.1591H115.818V41.1591ZM84.9545 42.1591V58.8295H86.9545V42.1591H84.9545ZM85.9545 59.8295H118.375V57.8295H85.9545V59.8295ZM117.375 58.8295V71H119.375V58.8295H117.375ZM118.375 70H71.1932V72H118.375V70ZM129.974 71H128.974V72H129.974V71ZM129.974 1.18182V0.181816H128.974V1.18182H129.974ZM144.736 1.18182H145.736V0.181816H144.736V1.18182ZM144.736 31.9659H143.736V32.9659H144.736V31.9659ZM145.656 31.9659V32.9659H146.131L146.431 32.5982L145.656 31.9659ZM170.781 1.18182V0.181816H170.307L170.007 0.549513L170.781 1.18182ZM188.474 1.18182L189.244 1.81993L190.602 0.181816H188.474V1.18182ZM162.565 32.4432L161.795 31.8051L161.316 32.3838L161.738 33.0055L162.565 32.4432ZM188.781 71V72H190.67L189.608 70.4377L188.781 71ZM171.122 71L170.29 71.5545L170.587 72H171.122V71ZM151.997 42.2955L152.829 41.741L152.08 40.6163L151.224 41.6617L151.997 42.2955ZM144.736 51.1591L143.962 50.5254L143.736 50.8018V51.1591H144.736ZM144.736 71V72H145.736V71H144.736ZM130.974 71V1.18182H128.974V71H130.974ZM129.974 2.18182H144.736V0.181816H129.974V2.18182ZM143.736 1.18182V31.9659H145.736V1.18182H143.736ZM144.736 32.9659H145.656V30.9659H144.736V32.9659ZM146.431 32.5982L171.556 1.81412L170.007 0.549513L144.882 31.3336L146.431 32.5982ZM170.781 2.18182H188.474V0.181816H170.781V2.18182ZM187.704 0.543699L161.795 31.8051L163.335 33.0813L189.244 1.81993L187.704 0.543699ZM161.738 33.0055L187.954 71.5623L189.608 70.4377L163.392 31.8809L161.738 33.0055ZM188.781 70H171.122V72H188.781V70ZM171.954 70.4455L152.829 41.741L151.165 42.8499L170.29 71.5545L171.954 70.4455ZM151.224 41.6617L143.962 50.5254L145.509 51.7928L152.771 42.9292L151.224 41.6617ZM143.736 51.1591V71H145.736V51.1591H143.736ZM144.736 70H129.974V72H144.736V70ZM233.474 21.2614L232.479 21.3601L232.569 22.2614H233.474V21.2614ZM215.44 13.5909L215.81 14.5203L215.82 14.5158L215.44 13.5909ZM211.622 16.3523L210.822 15.7522L210.815 15.7623L211.622 16.3523ZM210.327 20.375L211.326 20.4113L211.327 20.3932V20.375H210.327ZM211.111 23.6477L210.257 24.1683L210.262 24.1758L210.266 24.1833L211.111 23.6477ZM213.531 26.0682L212.977 26.9002L212.983 26.9045L212.99 26.9088L213.531 26.0682ZM217.077 27.8068L216.727 28.7438L216.734 28.7464L216.741 28.7489L217.077 27.8068ZM221.372 29.0341L221.605 28.0615L221.598 28.0598L221.591 28.0582L221.372 29.0341ZM227.645 30.5341L227.412 31.5067L227.419 31.5084L227.426 31.5099L227.645 30.5341ZM236.031 33.2614L235.624 34.1745L236.031 33.2614ZM242.645 37.4545L243.31 36.7076L242.645 37.4545ZM246.974 43.3182L246.064 43.732L246.068 43.7396L246.974 43.3182ZM248.577 51.0568L249.577 51.0621L249.577 51.049L248.577 51.0568ZM245.304 62.1705L244.48 61.6034L244.479 61.6047L245.304 62.1705ZM236.031 69.4318L236.421 70.3526L236.424 70.3515L236.031 69.4318ZM206.747 69.3977L206.364 70.3213L206.365 70.322L206.747 69.3977ZM196.997 61.7273L196.17 62.2896L196.175 62.2959L196.997 61.7273ZM193.349 49.0795V48.0795H192.327L192.35 49.1022L193.349 49.0795ZM207.634 49.0795L208.631 49.0117L208.568 48.0795H207.634V49.0795ZM209.645 54.9432L208.846 55.545L208.851 55.5515L208.856 55.5579L209.645 54.9432ZM214.452 58.4545L214.082 59.3838L214.095 59.3887L214.452 58.4545ZM227.815 58.5227L227.452 57.5911L227.448 57.5927L227.815 58.5227ZM232.145 55.4886L232.93 56.1083L232.145 55.4886ZM232.281 47.0682L231.52 47.7163L231.528 47.7255L232.281 47.0682ZM228.259 44.3409L227.865 45.2601L227.869 45.2619L228.259 44.3409ZM221.815 42.2955L221.572 43.2654L221.581 43.2676L221.815 42.2955ZM214.213 40.3864L214.457 39.4165L214.449 39.4147L214.213 40.3864ZM200.27 33.6705L199.604 34.4162L200.27 33.6705ZM195.19 21.3636L196.19 21.368L196.19 21.3583L195.19 21.3636ZM198.565 10.2841L197.756 9.69626L197.754 9.70009L198.565 10.2841ZM235.213 2.88636L234.796 3.79526L234.798 3.79618L235.213 2.88636ZM244.281 10.2841L243.456 10.8484L244.281 10.2841ZM247.622 21.2614V22.2614H248.639L248.622 21.245L247.622 21.2614ZM234.47 21.1627C234.171 18.1549 232.871 15.7515 230.556 14.047L229.37 15.6575C231.191 16.9985 232.232 18.8678 232.479 21.3601L234.47 21.1627ZM230.556 14.047C228.261 12.3576 225.222 11.5682 221.543 11.5682V13.5682C224.954 13.5682 227.528 14.3014 229.37 15.6575L230.556 14.047ZM221.543 11.5682C219.045 11.5682 216.874 11.9207 215.06 12.666L215.82 14.5158C217.325 13.8974 219.222 13.5682 221.543 13.5682V11.5682ZM215.071 12.6616C213.277 13.3744 211.84 14.395 210.822 15.7523L212.422 16.9523C213.177 15.9459 214.286 15.1256 215.81 14.5203L215.071 12.6616ZM210.815 15.7623C209.823 17.1198 209.327 18.6685 209.327 20.375H211.327C211.327 19.0815 211.694 17.9483 212.43 16.9423L210.815 15.7623ZM209.327 20.3387C209.276 21.7551 209.572 23.0457 210.257 24.1683L211.965 23.1271C211.513 22.3862 211.287 21.4949 211.326 20.4113L209.327 20.3387ZM210.266 24.1833C210.94 25.2459 211.851 26.1498 212.977 26.9002L214.086 25.2361C213.166 24.6229 212.463 23.9132 211.955 23.1122L210.266 24.1833ZM212.99 26.9088C214.082 27.6129 215.33 28.2229 216.727 28.7438L217.426 26.8698C216.141 26.3907 215.026 25.8416 214.073 25.2276L212.99 26.9088ZM216.741 28.7489C218.124 29.241 219.595 29.661 221.154 30.0099L221.591 28.0582C220.104 27.7254 218.711 27.3272 217.412 26.8647L216.741 28.7489ZM221.14 30.0067L227.412 31.5067L227.877 29.5615L221.605 28.0615L221.14 30.0067ZM227.426 31.5099C230.414 32.1789 233.146 33.0683 235.624 34.1745L236.439 32.3482C233.826 31.1817 230.966 30.2529 227.863 29.5582L227.426 31.5099ZM235.624 34.1745C238.086 35.2738 240.201 36.6181 241.98 38.2015L243.31 36.7076C241.361 34.9728 239.067 33.5216 236.439 32.3482L235.624 34.1745ZM241.98 38.2015C243.74 39.7687 245.1 41.6102 246.064 43.732L247.885 42.9044C246.804 40.5262 245.277 38.4585 243.31 36.7076L241.98 38.2015ZM246.068 43.7396C247.043 45.8395 247.555 48.274 247.577 51.0646L249.577 51.049C249.553 48.0214 248.997 45.2969 247.881 42.8968L246.068 43.7396ZM247.577 51.0515C247.555 55.149 246.512 58.6521 244.48 61.6034L246.128 62.7375C248.414 59.416 249.553 55.5101 249.577 51.0621L247.577 51.0515ZM244.479 61.6047C242.467 64.5374 239.539 66.8469 235.639 68.5121L236.424 70.3515C240.615 68.5622 243.868 66.0308 246.129 62.7362L244.479 61.6047ZM235.641 68.5111C231.773 70.1502 227.061 70.9886 221.474 70.9886V72.9886C227.252 72.9886 232.244 72.1226 236.421 70.3526L235.641 68.5111ZM221.474 70.9886C215.938 70.9886 211.164 70.1401 207.129 68.4735L206.365 70.322C210.694 72.1099 215.738 72.9886 221.474 72.9886V70.9886ZM207.131 68.4742C203.132 66.8134 200.041 64.3722 197.82 61.1586L196.175 62.2959C198.635 65.855 202.044 68.5275 206.364 70.3213L207.131 68.4742ZM197.824 61.165C195.636 57.9472 194.459 53.9293 194.349 49.0569L192.35 49.1022C192.467 54.2752 193.722 58.6892 196.17 62.2896L197.824 61.165ZM193.349 50.0795H207.634V48.0795H193.349V50.0795ZM206.636 49.1473C206.805 51.6436 207.527 53.7939 208.846 55.545L210.443 54.3413C209.4 52.9561 208.78 51.1973 208.631 49.0117L206.636 49.1473ZM208.856 55.5579C210.181 57.2571 211.934 58.5293 214.082 59.3838L214.821 57.5253C212.97 56.7889 211.518 55.7201 210.434 54.3284L208.856 55.5579ZM214.095 59.3887C216.25 60.2119 218.658 60.6136 221.304 60.6136V58.6136C218.859 58.6136 216.699 58.2427 214.809 57.5204L214.095 59.3887ZM221.304 60.6136C223.898 60.6136 226.199 60.2367 228.183 59.4528L227.448 57.5927C225.75 58.2633 223.71 58.6136 221.304 58.6136V60.6136ZM228.179 59.4543C230.173 58.6761 231.776 57.5702 232.93 56.1083L231.36 54.869C230.469 55.998 229.185 56.9148 227.452 57.5911L228.179 59.4543ZM232.93 56.1083C234.095 54.6327 234.679 52.9248 234.679 51.0227H232.679C232.679 52.4843 232.241 53.7536 231.36 54.869L232.93 56.1083ZM234.679 51.0227C234.679 49.2405 234.143 47.6809 233.035 46.4108L231.528 47.7255C232.283 48.5918 232.679 49.6686 232.679 51.0227H234.679ZM233.043 46.4201C232.002 45.1974 230.514 44.2093 228.648 43.4199L227.869 45.2619C229.549 45.9725 230.742 46.8026 231.52 47.7163L233.043 46.4201ZM228.652 43.4218C226.836 42.6432 224.631 41.9456 222.05 41.3233L221.581 43.2676C224.091 43.8726 226.181 44.5386 227.865 45.2601L228.652 43.4218ZM222.059 41.3256L214.457 39.4165L213.97 41.3562L221.572 43.2653L222.059 41.3256ZM214.449 39.4147C208.673 38.0096 204.189 35.8309 200.936 32.9247L199.604 34.4162C203.169 37.6009 207.981 39.8995 213.977 41.358L214.449 39.4147ZM200.936 32.9247C197.769 30.0957 196.169 26.2818 196.19 21.368L194.19 21.3592C194.167 26.7637 195.952 31.1543 199.604 34.4162L200.936 32.9247ZM196.19 21.3583C196.169 17.3232 197.239 13.8406 199.377 10.8681L197.754 9.70009C195.347 13.0458 194.167 16.9496 194.19 21.369L196.19 21.3583ZM199.374 10.8719C201.554 7.87185 204.555 5.51076 208.414 3.8006L207.603 1.97212C203.462 3.80742 200.167 6.37815 197.756 9.69627L199.374 10.8719ZM208.414 3.8006C212.267 2.09292 216.671 1.22727 221.645 1.22727V-0.77273C216.437 -0.77273 211.75 0.134346 207.603 1.97212L208.414 3.8006ZM221.645 1.22727C226.714 1.22727 231.089 2.09422 234.796 3.79526L235.63 1.97747C231.61 0.133047 226.94 -0.77273 221.645 -0.77273V1.22727ZM234.798 3.79618C238.538 5.50232 241.411 7.85672 243.456 10.8484L245.107 9.71984C242.833 6.39328 239.66 3.81586 235.628 1.97654L234.798 3.79618ZM243.456 10.8484C245.495 13.8317 246.557 17.2966 246.622 21.2778L248.622 21.245C248.551 16.9079 247.386 13.0546 245.107 9.71983L243.456 10.8484ZM247.622 20.2614H233.474V22.2614H247.622V20.2614ZM268.946 71V72H269.672L269.897 71.3094L268.946 71ZM253.128 71L252.183 70.6737L251.725 72H253.128V71ZM277.23 1.18182V0.181816H276.517L276.285 0.855497L277.23 1.18182ZM296.253 1.18182L297.198 0.855911L296.966 0.181816H296.253V1.18182ZM320.321 71V72H321.724L321.266 70.6741L320.321 71ZM304.503 71L303.552 71.3088L303.776 72H304.503V71ZM287.014 17.1364L287.965 16.8275L287.741 16.1364H287.014V17.1364ZM286.469 17.1364V16.1364H285.742L285.518 16.827L286.469 17.1364ZM267.957 43.5568V42.5568H266.957V43.5568H267.957ZM305.321 43.5568H306.321V42.5568H305.321V43.5568ZM305.321 55.0795V56.0795H306.321V55.0795H305.321ZM267.957 55.0795H266.957V56.0795H267.957V55.0795ZM268.946 70H253.128V72H268.946V70ZM254.073 71.3263L278.175 1.50813L276.285 0.855497L252.183 70.6737L254.073 71.3263ZM277.23 2.18182H296.253V0.181816H277.23V2.18182ZM295.307 1.50772L319.376 71.3259L321.266 70.6741L297.198 0.855911L295.307 1.50772ZM320.321 70H304.503V72H320.321V70ZM305.454 70.6912L287.965 16.8275L286.063 17.4452L303.552 71.3088L305.454 70.6912ZM287.014 16.1364H286.469V18.1364H287.014V16.1364ZM285.518 16.827L267.995 70.6906L269.897 71.3094L287.42 17.4457L285.518 16.827ZM267.957 44.5568H305.321V42.5568H267.957V44.5568ZM304.321 43.5568V55.0795H306.321V43.5568H304.321ZM305.321 54.0795H267.957V56.0795H305.321V54.0795ZM268.957 55.0795V43.5568H266.957V55.0795H268.957ZM328.724 1.18182V0.181816H327.724V1.18182H328.724ZM346.929 1.18182L347.854 0.802555L347.6 0.181816H346.929V1.18182ZM366.156 48.0909L365.231 48.4702L365.485 49.0909H366.156V48.0909ZM366.974 48.0909V49.0909H367.645L367.9 48.4702L366.974 48.0909ZM386.202 1.18182V0.181816H385.531L385.276 0.802555L386.202 1.18182ZM404.406 1.18182H405.406V0.181816H404.406V1.18182ZM404.406 71V72H405.406V71H404.406ZM390.088 71H389.088V72H390.088V71ZM390.088 25.5568H391.088V24.5568H390.088V25.5568ZM389.509 25.5568V24.5568H388.832L388.58 25.1849L389.509 25.5568ZM371.44 70.6591V71.6591H372.117L372.369 71.031L371.44 70.6591ZM361.69 70.6591L360.762 71.0298L361.013 71.6591H361.69V70.6591ZM343.622 25.3864L344.551 25.0157L344.3 24.3864H343.622V25.3864ZM343.043 25.3864V24.3864H342.043V25.3864H343.043ZM343.043 71V72H344.043V71H343.043ZM328.724 71H327.724V72H328.724V71ZM328.724 2.18182H346.929V0.181816H328.724V2.18182ZM346.004 1.56108L365.231 48.4702L367.082 47.7116L347.854 0.802555L346.004 1.56108ZM366.156 49.0909H366.974V47.0909H366.156V49.0909ZM367.9 48.4702L387.127 1.56108L385.276 0.802555L366.049 47.7116L367.9 48.4702ZM386.202 2.18182H404.406V0.181816H386.202V2.18182ZM403.406 1.18182V71H405.406V1.18182H403.406ZM404.406 70H390.088V72H404.406V70ZM391.088 71V25.5568H389.088V71H391.088ZM390.088 24.5568H389.509V26.5568H390.088V24.5568ZM388.58 25.1849L370.512 70.2872L372.369 71.031L390.437 25.9287L388.58 25.1849ZM371.44 69.6591H361.69V71.6591H371.44V69.6591ZM362.619 70.2884L344.551 25.0157L342.693 25.757L360.762 71.0298L362.619 70.2884ZM343.622 24.3864H343.043V26.3864H343.622V24.3864ZM342.043 25.3864V71H344.043V25.3864H342.043ZM343.043 70H328.724V72H343.043V70ZM329.724 71V1.18182H327.724V71H329.724Z"
            fill="black" />
    </g>
    <defs>
        <filter id="filter0_d_2_7" x="0.409058" y="0.227295" width="407.997" height="79.7614"
            filterUnits="userSpaceOnUse" color-interpolation-filters="sRGB">
            <feFlood flood-opacity="0" result="BackgroundImageFix" />
            <feColorMatrix in="SourceAlpha" type="matrix" values="0 0 0 0 0 0 0 0 0 0 0 0 0 0 0 0 0 0 127 0"
                result="hardAlpha" />
            <feOffset dy="4" />
            <feGaussianBlur stdDeviation="2" />
            <feComposite in2="hardAlpha" operator="out" />
            <feColorMatrix type="matrix" values="0 0 0 0 0 0 0 0 0 0 0 0 0 0 0 0 0 0 0.25 0" />
            <feBlend mode="normal" in2="BackgroundImageFix" result="effect1_dropShadow_2_7" />
            <feBlend mode="normal" in="SourceGraphic" in2="effect1_dropShadow_2_7" result="shape" />
        </filter>
    </defs>
</svg>